<?xml version="1.0" encoding="utf-8"?>
<!-- Svg Vector Icons : http://www.onlinewebfonts.com/icon -->
<!DOCTYPE svg PUBLIC "-//W3C//DTD SVG 1.1//EN" "http://www.w3.org/Graphics/SVG/1.1/DTD/svg11.dtd">
<svg version="1.1" xmlns="http://www.w3.org/2000/svg" xmlns:xlink="http://www.w3.org/1999/xlink" x="0px" y="0px" viewBox="0 0 1000 1000" enable-background="new 0 0 1000 1000" xml:space="preserve">
<metadata> Svg Vector Icons : http://www.onlinewebfonts.com/icon </metadata>
<g><path d="M310.9,748.6H195.8c-6.1,0-10.9-4.9-10.9-10.9l-0.4-83.5c0.8,0.2,1.6,0.5,2.4,0.5h116.7c6.7,0,12.1-5.4,12.1-12.1c0-6.7-5.4-12.1-12.1-12.1H186.8c-0.8,0-1.7,0.3-2.5,0.5l0.5-112.8c0-6,4.9-11,10.9-11h115.1c6.7,0,12.1-5.4,12.1-12.1c0-6.7-5.4-12.1-12.1-12.1H195.8c-19.4,0-35.1,15.7-35.1,35.2v219.5c0,19.4,15.7,35.1,35.1,35.1h115.1c6.7,0,12.1-5.4,12.1-12.1C322.9,754.1,317.6,748.6,310.9,748.6z"/><path d="M545.3,483.1h-0.9h-121h-0.9c-19.3,0-35.1,15.7-35.1,35.1V595v20.9v144.8c0,6.7,5.4,12.1,12.1,12.1c6.7,0,12.1-5.4,12.1-12.1v-112c1.7,0.5,3.4,0.7,5.2,1c1.5,0.7,3.2,1.1,5,1.1h0.7h24.7c0.2,0.4,0.3,0.7,0.5,1.1l86.9,115.9c2.4,3.2,6,4.8,9.7,4.8c2.5,0,5-0.8,7.2-2.4c5.3-4,6.4-11.6,2.4-16.9L477,651h66.6h0.7c1.8,0,3.5-0.4,5-1.1c16.5-2.9,31-20.9,31-37.9v-93.6C580.4,498.9,564.7,483.1,545.3,483.1z M422.4,626.9c-6,0-10.9-4.9-10.9-11V595v-76.7c0-6,4.9-11,10.9-11h0.9h121h0.9c6,0,11,4.9,11,10.7l-1.8,97.9c0,6-4.9,11-10.9,11H422.4z"/><path d="M802.8,483.1h-0.9h-121h-0.9c-19.4,0-35.1,15.7-35.1,35.1V595v20.9v144.8c0,6.7,5.4,12.1,12.1,12.1c6.7,0,12-5.4,12-12.1v-112c1.7,0.5,3.4,0.7,5.1,1c1.6,0.7,3.3,1.1,5,1.1h0.8h121.2h0.7c1.8,0,3.5-0.4,5-1.1c16.5-2.8,31.1-20.8,31.1-37.9v-93.6C837.9,498.9,822.2,483.1,802.8,483.1z M679.9,626.9c-6,0-11-4.9-11-11V595v-76.7c0-6,4.9-11,11-11h0.9h121h0.9c6,0,11,4.9,11,10.7l-1.8,97.9c0,6-4.9,11-10.9,11H679.9z"/><path d="M888.6,77.6h-490V10H162.1v67.6h-50.7c-46.6,0-84.5,37.9-84.5,84.5v743.4c0,46.6,37.9,84.5,84.5,84.5h777.2c46.6,0,84.5-37.9,84.5-84.5V162.1C973.1,115.5,935.2,77.6,888.6,77.6z M195.9,43.8h169v255.7l-84.5-56.3l-84.5,56.3V43.8z M939.3,905.5c0,27.9-22.7,50.7-50.7,50.7H111.4c-27.9,0-50.7-22.7-50.7-50.7V162.1c0-27.9,22.7-50.7,50.7-50.7h50.7v251.2l118.3-78.8l118.3,78.8V111.4h490c27.9,0,50.7,22.7,50.7,50.7V905.5z"/></g>
</svg>